<svg xmlns="http://www.w3.org/2000/svg"  viewBox="0 0 50 50" width="100px" height="100px" baseProfile="basic"><path fill="#ffd217" d="M2.652,47.712l3.636-16.365l30.11-30.11l12.729,12.728l-30.111,30.11L2.652,47.712z M9.94,33.351	l-2.02,9.092l9.091-2.021L43.47,13.964l-7.071-7.071L9.94,33.351z"/><polygon fill="#af87ce" points="8.238,42.372 7.92,42.442 7.991,42.125 4.638,38.772 2.652,47.711 11.591,45.725"/><polygon fill="#2dea55" points="40.641,22.449 32.863,14.671 35.691,11.843 40.641,16.793 43.47,13.964 36.398,6.893 30.742,12.55 27.914,9.722 36.398,1.236 49.127,13.964"/><rect width="4" height="4" x="38.641" y="17.621" fill="#0cbc35" transform="rotate(-45.001 40.641 19.622)"/><rect width="4" height="14" x="12.479" y="28.884" fill="#ffd217" transform="rotate(-45.001 14.478 35.885)"/></svg>